<?xml version="1.0" standalone="no"?>
<!DOCTYPE svg PUBLIC "-//W3C//DTD SVG 20010904//EN"
 "http://www.w3.org/TR/2001/REC-SVG-20010904/DTD/svg10.dtd">
<svg version="1.0" xmlns="http://www.w3.org/2000/svg"
 width="440.000000pt" height="440.000000pt" viewBox="0 0 440.000000 440.000000"
 preserveAspectRatio="xMidYMid meet">
<metadata>
Created by potrace 1.14, written by Peter Selinger 2001-2017
</metadata>
<g transform="translate(0.000000,440.000000) scale(0.100000,-0.100000)"
fill="#000000" stroke="none">
<path d="M2226 4203 c-3 -3 -65 -7 -138 -8 -133 -3 -199 -10 -229 -26 -9 -4
-60 -15 -115 -24 -54 -9 -137 -31 -184 -49 -47 -18 -119 -46 -160 -61 -110
-41 -207 -97 -364 -208 -213 -151 -349 -293 -501 -522 -95 -142 -152 -247
-175 -320 -7 -22 -28 -79 -46 -127 -34 -89 -48 -139 -59 -218 -3 -25 -15 -77
-26 -117 -12 -44 -19 -99 -18 -145 0 -40 0 -86 -1 -103 -10 -133 10 -400 33
-460 9 -22 18 -68 21 -102 5 -63 26 -125 51 -153 8 -9 17 -34 20 -55 10 -66
25 -104 62 -152 19 -25 37 -62 40 -82 8 -44 44 -106 88 -146 18 -16 40 -50 50
-75 23 -62 58 -105 109 -135 25 -15 49 -38 56 -55 18 -43 58 -85 108 -113 25
-14 55 -43 72 -71 31 -48 109 -106 143 -106 10 0 39 -21 63 -46 43 -44 135
-94 173 -94 10 0 24 -7 31 -16 25 -29 97 -64 156 -75 32 -6 68 -19 79 -29 28
-25 109 -51 175 -54 30 -2 69 -9 85 -16 93 -39 607 -43 720 -6 28 9 75 19 105
22 83 9 336 97 459 158 103 52 327 205 425 292 142 124 263 273 405 499 49 78
83 149 116 245 12 36 36 102 53 148 17 45 34 110 38 145 4 34 12 80 19 102 22
67 27 114 32 265 5 173 5 188 -3 220 -3 14 -7 61 -8 105 -2 45 -10 103 -19
130 -8 28 -18 77 -21 110 -6 72 -21 120 -51 160 -12 17 -25 50 -29 75 -8 53
-36 116 -65 149 -11 13 -26 43 -32 65 -17 63 -45 112 -88 152 -22 20 -43 49
-46 64 -10 45 -60 113 -103 140 -23 15 -44 38 -51 56 -18 50 -86 120 -136 140
-25 11 -47 26 -50 35 -10 31 -89 99 -134 115 -25 9 -64 35 -86 57 -39 39 -124
87 -156 87 -8 0 -34 14 -57 31 -48 35 -130 69 -167 69 -13 0 -41 11 -61 25
-43 29 -88 43 -164 49 -30 2 -75 12 -100 21 -26 10 -78 18 -125 19 -44 2 -96
6 -115 9 -63 12 -99 15 -104 10z"/>
</g>
</svg>
