<?xml version="1.0" standalone="no"?>
<!DOCTYPE svg PUBLIC "-//W3C//DTD SVG 20010904//EN"
 "http://www.w3.org/TR/2001/REC-SVG-20010904/DTD/svg10.dtd">
<svg version="1.0" xmlns="http://www.w3.org/2000/svg"
 width="700.000000pt" height="700.000000pt" viewBox="0 0 700.000000 700.000000"
 preserveAspectRatio="xMidYMid meet">
<metadata>
Created by potrace 1.14, written by Peter Selinger 2001-2017
</metadata>
<g transform="translate(0.000000,700.000000) scale(0.100000,-0.100000)"
fill="#000000" stroke="none">
<path d="M3430 6676 c-36 -6 -79 -8 -95 -5 -91 20 -293 -3 -416 -46 -46 -17
-63 -20 -169 -30 -69 -7 -219 -52 -310 -92 -30 -14 -100 -39 -155 -58 -186
-61 -331 -139 -583 -313 -362 -251 -560 -448 -809 -803 -185 -266 -283 -443
-332 -602 -11 -38 -41 -120 -66 -182 -52 -129 -81 -236 -94 -345 -5 -41 -23
-129 -41 -195 -29 -110 -31 -132 -30 -260 1 -77 -1 -197 -5 -267 -6 -91 -4
-140 5 -175 7 -26 14 -106 15 -178 1 -105 6 -143 24 -195 13 -36 27 -69 32
-75 5 -5 9 -38 9 -75 0 -121 31 -221 95 -316 14 -21 25 -51 25 -70 0 -78 59
-212 119 -268 19 -18 31 -40 31 -55 1 -41 44 -154 79 -205 18 -26 54 -64 81
-84 32 -25 50 -47 54 -67 20 -102 107 -217 205 -273 42 -23 56 -40 81 -89 36
-72 110 -145 181 -178 41 -19 57 -34 81 -75 56 -99 171 -185 273 -206 20 -4
42 -22 68 -55 21 -28 62 -65 91 -84 57 -36 160 -75 199 -75 13 0 36 -14 53
-31 56 -59 190 -119 267 -119 21 0 54 -15 92 -40 76 -51 163 -78 274 -86 51
-4 116 -16 161 -31 63 -22 96 -26 205 -28 72 -1 152 -8 178 -15 35 -9 84 -11
175 -5 70 4 190 6 267 5 128 -1 150 1 260 30 66 18 154 36 195 41 108 13 216
42 343 93 62 24 148 56 191 71 174 57 325 140 577 316 216 150 285 206 422
338 129 125 240 257 364 434 197 281 281 434 352 638 21 63 55 155 75 206 47
119 66 192 72 278 4 39 17 104 29 146 48 155 66 321 46 414 -3 17 -1 62 6 100
15 86 16 195 2 255 -6 25 -14 113 -18 195 -7 126 -12 160 -33 215 -19 48 -27
90 -31 160 -6 110 -31 190 -80 259 -23 32 -36 63 -41 100 -10 77 -47 171 -90
230 -21 28 -41 51 -46 51 -4 0 -13 27 -19 59 -18 89 -73 192 -132 245 -28 26
-55 46 -59 46 -4 0 -13 21 -19 46 -27 108 -111 218 -200 263 -22 12 -41 27
-41 35 0 32 -65 138 -110 180 -46 43 -138 96 -167 96 -7 0 -22 19 -34 41 -45
89 -155 173 -263 200 -25 6 -46 15 -46 19 0 4 -20 31 -46 59 -52 57 -153 113
-238 131 -39 8 -66 21 -93 46 -53 49 -147 91 -234 106 -53 9 -88 21 -124 45
-66 44 -154 70 -262 78 -58 5 -110 16 -153 33 -55 21 -89 27 -215 33 -82 4
-170 12 -195 18 -58 13 -178 12 -260 -3z m274 -26 c7 -7 2 -10 -11 -10 -11 0
-60 -11 -108 -25 -76 -22 -90 -24 -104 -12 -9 8 -29 21 -46 30 l-30 15 35 6
c79 13 98 14 175 10 44 -3 84 -9 89 -14z m-424 0 c13 -8 12 -10 -3 -10 -10 0
-66 -18 -124 -40 l-106 -40 -60 22 -59 22 42 12 c37 11 112 25 200 38 51 7 95
5 110 -4z m139 -36 c28 -15 50 -29 47 -32 -3 -3 -47 -22 -98 -42 -51 -21 -123
-51 -160 -68 -38 -17 -68 -27 -68 -22 0 6 -16 28 -36 49 -34 38 -34 40 -15 51
25 13 252 90 267 90 5 0 34 -12 63 -26z m603 11 c107 -22 106 -28 -7 -50
l-103 -20 -47 42 -47 43 69 0 c37 0 98 -7 135 -15z m-196 -27 c26 -18 49 -38
51 -44 2 -6 -24 -18 -58 -28 -33 -9 -99 -32 -147 -51 -47 -19 -86 -34 -86 -32
-1 1 -15 30 -32 65 -18 34 -29 64 -25 66 8 5 155 43 191 49 50 9 58 6 106 -25z
m-1151 -71 c-103 -50 -114 -53 -165 -47 l-55 5 87 32 c73 27 198 60 233 62 6
0 -39 -23 -100 -52z m310 33 c29 -11 27 -12 -124 -91 -84 -43 -155 -79 -158
-79 -3 0 -23 16 -44 35 -22 19 -45 35 -52 35 -18 1 17 19 138 73 96 42 116 47
160 43 28 -2 63 -9 80 -16z m1215 -19 c19 -16 43 -42 52 -59 l18 -29 -38 -6
c-20 -4 -86 -22 -145 -41 -105 -33 -107 -33 -107 -12 0 11 -11 48 -25 80 -13
33 -23 61 -22 62 1 1 38 8 82 17 122 23 145 21 185 -12z m205 4 c28 -9 66 -27
85 -39 l35 -21 -87 -7 c-48 -3 -101 -9 -118 -13 -17 -4 -30 -2 -30 3 0 5 -19
31 -42 57 l-43 48 75 -6 c41 -3 98 -13 125 -22z m-881 -27 c48 -85 50 -82 -66
-137 -57 -27 -145 -73 -195 -101 l-93 -51 0 63 c0 35 -4 77 -9 94 l-9 32 87
41 c95 45 229 100 248 100 7 1 23 -18 37 -41z m-440 -30 c20 -23 35 -46 33
-51 -2 -6 -58 -41 -126 -79 -67 -37 -150 -86 -184 -108 l-62 -39 -9 57 c-17
112 -28 96 143 184 85 43 158 78 162 78 4 0 24 -19 43 -42z m845 -18 c45 -105
49 -98 -91 -159 -68 -29 -150 -68 -183 -85 l-60 -31 0 112 c0 111 0 113 25
122 132 50 249 90 266 90 16 1 27 -11 43 -49z m-1400 -14 c-2 -2 -33 -21 -69
-42 -36 -20 -113 -68 -172 -106 -89 -57 -111 -67 -127 -58 -11 5 -41 10 -68
10 l-48 1 70 44 c107 69 246 138 290 146 45 7 130 11 124 5z m2070 -57 c23
-34 41 -65 41 -69 0 -4 -30 -13 -67 -20 -38 -7 -103 -23 -145 -35 l-76 -22
-12 64 c-6 35 -15 75 -21 90 -5 14 -7 28 -5 30 8 8 108 20 178 22 l66 1 41
-61z m131 24 c50 -18 109 -53 127 -74 9 -12 -5 -14 -91 -17 l-102 -2 -22 42
c-12 24 -29 53 -37 64 -16 21 -16 22 32 13 26 -5 68 -16 93 -26z m-2122 8 c20
-10 45 -28 54 -38 17 -19 14 -22 -120 -109 -75 -49 -169 -112 -209 -141 -73
-52 -83 -53 -83 -4 0 10 -11 34 -24 53 l-23 35 111 71 c95 60 245 150 254 151
1 1 19 -8 40 -18z m1696 -59 c9 -32 16 -75 16 -94 0 -34 -3 -37 -47 -54 -27
-10 -104 -42 -171 -71 -68 -30 -125 -53 -127 -51 -2 2 1 26 5 53 5 28 9 82 9
122 l1 72 108 35 c191 61 185 61 206 -12z m-730 -114 l-6 -76 -116 -67 c-65
-37 -174 -105 -244 -151 -71 -46 -128 -82 -128 -81 0 2 13 39 29 83 16 43 36
114 46 156 20 91 5 79 240 200 l170 87 7 -37 c4 -20 5 -71 2 -114z m-433 111
c4 -13 7 -53 8 -89 l1 -65 -123 -76 c-67 -43 -179 -118 -249 -167 l-126 -90
20 46 c11 26 32 94 47 151 l26 104 80 50 c121 76 288 168 300 164 5 -2 12 -14
16 -28z m-942 17 c-33 -29 -219 -133 -268 -151 -49 -18 -60 -19 -43 -7 52 37
341 185 311 158z m512 -98 c17 -89 17 -90 -78 -153 -80 -53 -345 -251 -435
-326 l-37 -30 36 82 c19 46 40 108 46 139 l11 57 106 76 c160 114 324 216 334
207 4 -5 12 -28 17 -52z m1255 -45 c-13 -162 -3 -148 -160 -235 -75 -42 -178
-102 -228 -133 -50 -30 -92 -54 -94 -52 -2 1 12 43 31 92 19 50 42 125 52 169
l18 78 100 51 c130 66 245 116 269 116 17 1 18 -5 12 -86z m970 2 c18 -33 35
-75 39 -92 6 -32 6 -33 -27 -33 -18 -1 -81 -13 -139 -28 l-106 -27 -7 85 c-3
47 -10 99 -15 117 -7 23 -6 33 2 37 7 3 59 4 116 3 l104 -2 33 -60z m-281 38
c4 -10 10 -65 12 -123 l5 -105 -78 -28 c-44 -15 -124 -47 -179 -71 -55 -24
-101 -42 -103 -41 -2 2 4 38 13 81 9 42 19 112 22 155 l6 77 71 21 c68 20 188
48 212 50 7 1 15 -7 19 -16z m402 -18 c63 -29 117 -68 144 -106 l20 -29 -109
0 -109 0 -7 31 c-3 17 -17 53 -31 81 -14 27 -25 52 -25 55 0 9 65 -9 117 -32z
m-2915 -33 c13 -6 -11 -28 -107 -99 -399 -298 -890 -790 -1175 -1180 -41 -56
-78 -99 -82 -97 -4 3 -8 35 -8 72 0 79 4 86 131 253 248 326 560 641 883 893
120 94 205 152 231 159 30 7 108 7 127 -1z m2178 -108 c-5 -48 -17 -120 -25
-159 l-16 -70 -107 -55 c-58 -30 -164 -90 -235 -132 -71 -42 -126 -71 -123
-65 50 114 118 293 131 348 l17 70 71 35 c73 37 289 125 295 120 1 -2 -2 -43
-8 -92z m-2110 54 c25 -42 27 -109 3 -124 -47 -30 -265 -210 -409 -339 -277
-249 -604 -597 -799 -854 l-70 -92 -39 6 c-47 7 -96 31 -96 48 0 18 197 274
323 421 227 264 519 547 787 761 140 112 262 204 273 204 4 1 16 -14 27 -31z
m-377 -37 c-316 -234 -668 -581 -925 -913 -51 -65 -93 -116 -95 -114 -6 6 65
144 100 196 144 211 501 573 750 760 53 40 220 130 240 130 5 0 -27 -26 -70
-59z m1302 2 c-9 -49 -72 -241 -88 -270 -7 -12 -75 -69 -152 -126 -285 -211
-526 -418 -819 -707 -326 -321 -554 -578 -794 -899 -68 -91 -127 -170 -131
-174 -12 -13 -201 -77 -267 -91 l-62 -13 50 81 c62 99 183 277 250 367 30 40
64 73 86 83 83 40 259 153 389 250 395 296 754 696 979 1090 l63 109 133 96
c122 87 355 241 366 241 2 0 1 -17 -3 -37z m-439 -62 c-8 -33 -29 -96 -46
-140 l-32 -81 -146 -119 c-443 -358 -863 -778 -1205 -1204 -119 -149 -138
-163 -267 -205 -73 -24 -150 -42 -150 -35 0 18 234 337 358 486 61 74 102 112
164 154 254 169 511 426 695 694 52 77 82 107 200 202 171 139 437 330 441
317 2 -5 -4 -36 -12 -69z m858 42 c-16 -73 -48 -171 -80 -248 l-36 -85 -96
-67 c-160 -110 -389 -284 -530 -402 -73 -61 -135 -111 -137 -111 -3 0 19 33
49 73 96 131 204 300 271 429 65 124 66 126 143 179 65 45 411 259 420 259 1
0 0 -12 -4 -27z m1655 -19 c24 -5 37 -16 50 -43 20 -39 47 -148 39 -156 -2 -3
-45 -12 -94 -20 -49 -9 -111 -22 -139 -29 l-50 -13 0 134 0 133 81 0 c45 0 96
-3 113 -6z m-215 -64 c4 -32 4 -92 0 -133 l-6 -73 -99 -33 c-54 -19 -137 -51
-185 -72 -67 -29 -84 -34 -79 -21 16 40 56 212 62 265 7 69 8 70 146 102 156
36 153 37 161 -35z m371 20 c22 -9 58 -31 79 -49 38 -30 102 -109 95 -115 -10
-9 -211 8 -213 18 -26 109 -36 144 -42 160 -6 16 -4 17 17 11 13 -4 42 -15 64
-25z m-1442 -62 c-24 -83 -66 -195 -112 -298 l-42 -95 -112 -75 c-143 -96
-432 -313 -564 -424 -57 -47 -103 -84 -103 -81 0 3 34 51 75 106 140 188 269
395 352 562 l38 78 125 78 c96 60 345 200 357 201 1 0 -5 -24 -14 -52z m-1709
-20 c-8 -29 -35 -96 -60 -148 -44 -93 -48 -98 -178 -213 -151 -134 -479 -463
-610 -612 -66 -75 -104 -109 -154 -137 -62 -35 -228 -96 -236 -87 -2 2 32 49
76 104 301 376 688 763 1063 1064 55 44 103 80 107 81 4 0 0 -24 -8 -52z
m2437 -74 c-11 -55 -29 -127 -39 -159 l-18 -60 -109 -58 c-61 -32 -167 -91
-237 -132 -70 -41 -129 -75 -132 -75 -2 0 22 59 55 130 32 72 73 172 90 223
18 51 37 97 43 103 16 15 144 72 261 115 73 27 101 34 103 25 2 -7 -6 -58 -17
-112z m892 -43 c29 -11 46 -61 54 -158 l6 -71 -59 -6 c-33 -4 -97 -14 -142
-22 -46 -8 -86 -14 -88 -11 -2 2 0 35 6 73 5 38 10 102 10 143 l0 74 95 -7
c52 -3 105 -10 118 -15z m-233 -26 c0 -56 -21 -228 -29 -243 -4 -8 -59 -31
-122 -51 -63 -21 -142 -50 -176 -64 -34 -15 -65 -27 -67 -27 -3 0 5 30 18 68
19 56 55 196 72 279 3 18 18 25 97 42 131 29 128 29 170 30 36 1 37 0 37 -34z
m-1069 -52 c-51 -137 -69 -180 -125 -291 l-54 -108 -118 -80 c-154 -103 -399
-286 -544 -405 -63 -52 -121 -98 -128 -103 -7 -4 34 55 92 131 134 179 246
347 340 513 41 73 77 136 78 140 7 17 458 280 480 280 4 0 -5 -35 -21 -77z
m1464 7 c50 -35 97 -92 126 -155 10 -22 17 -41 15 -42 -1 -1 -22 4 -46 11 -25
7 -73 17 -107 21 l-61 7 -7 61 c-4 34 -14 82 -21 107 -8 25 -14 46 -14 48 0 7
76 -31 115 -58z m-2715 -41 c-143 -283 -375 -596 -581 -784 -72 -66 -214 -207
-315 -314 -201 -211 -312 -306 -545 -461 -144 -95 -365 -217 -343 -189 6 8 46
61 89 119 361 483 849 991 1343 1398 89 73 372 291 380 292 1 0 -12 -27 -28
-61z m1975 -31 c-9 -39 -31 -119 -50 -178 l-35 -106 -102 -49 c-56 -28 -166
-87 -245 -132 -79 -45 -143 -78 -141 -75 2 4 30 59 62 122 32 63 80 169 106
235 l48 120 59 30 c85 44 307 126 311 115 2 -6 -4 -42 -13 -82z m-2416 15
c-266 -472 -802 -1010 -1267 -1271 -81 -46 -81 -46 -3 52 261 330 599 682 951
993 142 125 332 282 343 282 5 1 -6 -25 -24 -56z m832 -62 c-129 -255 -415
-659 -571 -806 -182 -171 -488 -476 -601 -598 -153 -166 -354 -326 -622 -496
-95 -60 -296 -171 -311 -171 -17 0 230 339 391 535 159 195 266 311 358 391
121 105 341 325 453 453 137 156 447 417 770 648 86 62 158 110 160 108 2 -1
-10 -30 -27 -64z m-1337 -33 c-4 -7 -25 -37 -46 -66 -153 -209 -409 -460 -606
-594 l-47 -32 39 45 c110 125 350 370 496 506 90 84 166 153 168 153 2 0 0 -6
-4 -12z m2516 -45 c-36 -94 -103 -240 -158 -344 l-56 -106 -91 -58 c-179 -114
-570 -406 -729 -544 -10 -9 13 25 53 74 126 158 293 399 393 567 53 90 105
172 116 183 37 36 446 271 479 274 7 1 5 -15 -7 -46z m1040 -37 c0 -39 -24
-199 -35 -236 -3 -10 -49 -28 -127 -51 -68 -20 -153 -47 -189 -61 l-66 -26 44
125 c24 69 51 154 59 189 13 50 21 65 38 69 75 19 169 33 219 34 l57 1 0 -44z
m214 22 c47 -15 54 -31 62 -153 l7 -95 -74 0 c-41 0 -105 -5 -143 -10 -38 -6
-71 -9 -73 -6 -2 2 3 41 11 87 8 46 18 110 21 143 l7 59 71 -6 c40 -3 89 -12
111 -19z m-2136 -135 c-91 -161 -195 -318 -341 -513 -106 -143 -161 -204 -296
-335 -212 -204 -423 -416 -626 -626 -173 -180 -291 -276 -560 -458 -153 -103
-380 -241 -398 -241 -18 0 212 318 399 550 187 232 252 303 389 423 146 128
420 403 547 549 102 118 305 295 557 487 160 121 370 270 383 271 4 0 -20 -48
-54 -107z m1588 70 c-8 -40 -92 -296 -107 -325 -5 -9 -82 -53 -172 -96 -89
-43 -202 -102 -250 -130 -69 -40 -86 -46 -74 -29 36 56 134 250 182 360 l53
122 78 33 c78 33 271 101 288 102 4 0 5 -17 2 -37z m720 -41 c39 -39 83 -113
99 -171 6 -21 5 -23 -11 -17 -11 4 -48 15 -84 23 -36 9 -71 17 -77 19 -9 2
-13 26 -13 76 0 40 -4 90 -9 110 l-9 38 30 -18 c17 -9 50 -36 74 -60z m-1177
-203 c-28 -63 -84 -175 -126 -249 l-74 -135 -107 -67 c-188 -117 -561 -391
-716 -527 -10 -9 21 33 69 94 167 209 339 456 454 651 l54 92 123 72 c164 96
368 201 372 191 1 -4 -20 -59 -49 -122z m-820 -16 c-120 -208 -357 -543 -529
-747 -37 -45 -108 -117 -156 -161 -150 -135 -449 -432 -598 -594 -152 -166
-309 -299 -574 -488 -133 -94 -401 -266 -440 -281 -9 -3 24 53 72 124 234 341
532 706 688 839 121 103 499 481 613 613 142 164 467 432 827 682 79 55 144
100 145 100 1 0 -21 -39 -48 -87z m1877 -4 c-3 -34 -15 -101 -27 -149 l-20
-88 -77 -17 c-42 -9 -125 -31 -184 -49 -60 -19 -108 -32 -108 -29 0 2 12 32
27 66 14 34 43 113 64 176 20 63 44 118 52 122 17 10 149 26 226 28 l54 1 -7
-61z m119 37 c116 -31 125 -44 125 -190 l0 -81 -135 0 c-116 0 -134 2 -129 15
5 12 34 156 50 248 5 26 19 27 89 8z m-441 -43 c-11 -46 -61 -184 -96 -266
l-33 -78 -140 -62 c-77 -34 -190 -90 -251 -123 l-112 -61 31 51 c17 28 77 141
132 251 l100 200 90 33 c103 38 242 81 268 81 14 1 16 -4 11 -26z m688 -127
c36 -55 76 -161 65 -172 -2 -3 -27 7 -55 21 -27 14 -64 28 -81 31 l-31 7 0
109 0 109 31 -22 c17 -12 49 -49 71 -83z m-5463 -50 c-11 -33 -34 -80 -51
-104 -17 -25 -48 -75 -70 -111 -21 -36 -38 -63 -38 -59 0 25 168 344 176 335
1 -1 -6 -29 -17 -61z m4361 59 c0 -17 -111 -237 -180 -359 -69 -121 -86 -144
-123 -165 -143 -80 -501 -332 -682 -479 -44 -36 -89 -72 -100 -81 -10 -9 -5 2
13 24 202 252 381 500 496 687 l71 117 141 80 c127 73 338 180 357 181 4 0 7
-2 7 -5z m-831 -62 c-231 -386 -552 -802 -768 -996 -155 -140 -464 -448 -599
-599 -109 -122 -253 -247 -487 -423 -126 -95 -389 -272 -489 -330 l-49 -29 38
60 c216 338 565 770 777 960 178 159 425 407 583 583 129 144 319 310 580 506
127 95 423 303 433 305 2 0 -6 -17 -19 -37z m1756 -70 l47 -6 -6 -49 c-7 -48
-52 -238 -59 -244 -2 -2 -46 -11 -97 -20 -51 -9 -129 -26 -172 -39 -49 -14
-77 -19 -74 -12 40 92 99 240 117 295 l23 71 45 4 c88 7 129 7 176 0z m-280
-110 c-20 -53 -54 -138 -76 -189 l-40 -92 -97 -38 c-53 -21 -166 -73 -249
-114 -109 -54 -149 -70 -139 -55 34 53 150 262 202 367 l59 118 105 35 c113
37 211 63 247 64 22 1 22 0 -12 -96z m470 53 l60 -33 3 -104 c1 -57 -2 -110
-6 -117 -7 -10 -19 -11 -53 -3 -24 6 -77 11 -118 11 -65 0 -72 2 -66 18 14 37
55 218 55 245 0 27 2 28 33 22 17 -4 59 -21 92 -39z m-5482 -102 c3 -4 -11
-32 -32 -63 -21 -31 -71 -110 -111 -176 l-72 -120 5 82 c6 90 15 112 130 305
l52 86 11 -54 c5 -29 13 -57 17 -60z m5648 -73 c22 -48 46 -147 38 -156 -3 -3
-31 9 -62 26 l-57 31 2 105 3 105 27 -33 c15 -18 37 -53 49 -78z m-1021 87 c0
-16 -128 -257 -207 -390 -53 -90 -72 -114 -110 -136 -188 -111 -510 -336 -705
-494 -53 -43 -99 -78 -102 -78 -3 0 36 51 87 113 51 61 138 173 195 249 101
135 332 474 332 488 0 16 463 256 503 259 4 1 7 -4 7 -11z m-4278 -148 c-65
-82 -158 -208 -208 -279 l-89 -130 -46 0 c-49 -1 -109 15 -109 29 0 8 242 373
272 411 7 9 37 22 67 29 60 14 149 47 196 73 17 9 31 16 32 17 1 0 -51 -67
-115 -150z m3447 103 c-64 -106 -214 -325 -316 -461 -188 -251 -317 -401 -446
-517 -191 -173 -383 -362 -539 -533 -187 -205 -204 -221 -398 -377 -229 -184
-413 -316 -617 -444 l-83 -51 46 72 c215 336 537 745 722 915 193 177 455 438
614 611 154 167 292 289 543 480 120 92 481 342 493 342 2 0 -7 -17 -19 -37z
m-3689 -48 c22 -4 40 -9 40 -11 0 -2 -38 -59 -85 -125 -47 -67 -108 -159 -136
-205 -28 -46 -54 -84 -59 -84 -13 0 -58 62 -65 90 -5 19 9 51 62 140 38 63 88
143 111 178 l43 63 25 -20 c13 -11 42 -22 64 -26z m1390 21 c0 -2 -8 -10 -17
-17 -16 -13 -17 -12 -4 4 13 16 21 21 21 13z m420 -72 c0 -10 -312 -323 -355
-357 -22 -16 48 58 155 166 107 109 196 197 197 197 2 0 3 -3 3 -6z m3540 -45
c36 -5 68 -13 72 -17 8 -8 -13 -112 -43 -217 l-21 -72 -85 -7 c-47 -3 -117
-13 -155 -22 -38 -9 -71 -14 -72 -12 -2 1 16 48 40 103 24 55 56 135 71 178
l28 77 50 0 c27 0 79 -5 115 -11z m-205 -26 c-9 -38 -78 -208 -111 -277 l-29
-59 -105 -36 c-58 -21 -161 -63 -228 -93 -67 -31 -122 -55 -122 -52 0 2 35 64
78 137 42 73 100 176 127 230 l50 97 60 20 c73 24 220 58 259 59 26 1 28 -1
21 -26z m363 -23 c71 -38 82 -53 82 -112 0 -52 -15 -177 -22 -184 -2 -1 -26 3
-53 10 -28 8 -69 18 -91 23 l-41 8 23 80 c12 44 28 106 34 138 6 31 16 57 21
57 5 0 26 -9 47 -20z m-1544 -42 c-40 -68 -222 -332 -306 -443 -231 -308 -362
-457 -597 -678 -110 -103 -282 -275 -382 -382 -266 -284 -644 -593 -1038 -846
l-91 -59 51 82 c152 244 360 526 565 766 35 41 114 119 176 175 147 131 475
459 614 614 138 154 372 348 689 573 82 58 316 210 323 210 2 0 0 -6 -4 -12z
m740 -129 c-36 -68 -97 -177 -136 -242 -59 -98 -78 -122 -112 -139 -169 -86
-500 -310 -726 -492 -69 -55 -72 -57 -43 -21 204 249 434 559 529 711 43 69
47 73 158 132 108 59 387 185 393 178 2 -2 -26 -59 -63 -127z m-5047 61 c1
-53 -4 -74 -48 -168 -52 -114 -58 -116 -34 -12 12 52 74 240 79 240 0 0 2 -27
3 -60z m5999 -42 c28 -55 54 -161 54 -222 l0 -39 -43 40 c-24 22 -51 44 -60
49 -14 8 -15 17 -7 69 5 33 10 84 10 113 0 63 10 61 46 -10z m-3660 -81 c-90
-96 -380 -377 -356 -345 10 14 465 468 468 468 2 0 -48 -56 -112 -123z m-2275
-42 l29 -30 -78 -153 c-42 -83 -80 -152 -83 -152 -13 0 -31 92 -27 137 3 29
25 91 57 158 46 96 54 107 63 90 6 -11 23 -34 39 -50z m496 -32 c-81 -111
-205 -295 -247 -367 l-45 -77 -92 3 c-50 2 -94 6 -98 10 -7 7 106 215 181 331
28 42 50 67 62 67 29 0 164 38 213 59 63 28 65 26 26 -26z m713 32 c0 -2 -26
-35 -58 -72 -143 -167 -356 -446 -481 -631 -33 -49 -53 -68 -89 -84 -67 -29
-233 -85 -277 -94 -37 -7 -37 -6 -24 17 38 72 152 259 219 359 l78 115 113 59
c135 70 311 180 429 270 91 69 90 68 90 61z m4406 -42 c-24 -67 -86 -213 -116
-273 l-29 -58 -70 -17 c-55 -13 -228 -79 -348 -132 -7 -3 22 53 65 124 42 71
102 177 132 235 l55 107 74 16 c66 15 168 30 228 34 21 1 22 0 9 -36z m182 6
c44 -13 44 -13 38 -52 -4 -22 -22 -88 -42 -148 l-35 -109 -77 0 c-42 -1 -97
-5 -122 -10 -25 -4 -46 -7 -48 -6 -1 2 22 59 51 127 30 68 62 147 72 175 l18
50 51 -7 c28 -4 71 -13 94 -20z m-5714 -18 c13 -6 47 -11 74 -12 l50 -2 -51
-81 c-28 -45 -78 -132 -112 -193 l-62 -113 -42 30 c-23 17 -45 38 -48 47 -7
19 145 333 162 333 2 0 15 -4 29 -9z m4320 -118 c-217 -319 -514 -686 -665
-823 -220 -198 -373 -348 -514 -501 -210 -231 -289 -307 -460 -445 -227 -183
-614 -464 -638 -464 -17 0 191 314 337 510 181 243 335 417 533 604 104 98
272 266 374 373 223 236 451 431 774 658 94 67 328 215 338 215 5 0 -31 -57
-79 -127z m821 10 c-26 -48 -88 -156 -137 -239 -75 -126 -97 -154 -127 -169
-140 -67 -437 -258 -639 -411 -68 -52 -120 -88 -116 -82 5 7 51 65 103 128
120 145 302 390 406 544 l79 119 131 63 c125 62 336 147 343 139 3 -2 -17 -44
-43 -92z m732 20 l35 -42 -12 -78 c-6 -43 -16 -94 -21 -114 l-9 -36 -47 24
c-26 13 -65 26 -86 30 -30 4 -37 9 -31 22 16 38 74 234 74 252 0 20 1 20 31 2
17 -10 47 -37 66 -60z m-3337 24 c0 -1 -98 -99 -217 -217 -119 -118 -188 -183
-154 -143 83 96 371 376 371 360z m3427 -302 l5 -100 -38 45 c-22 24 -39 46
-39 50 1 16 27 158 33 175 10 36 33 -62 39 -170z m-6199 68 c9 -17 8 -29 -5
-60 -8 -21 -31 -81 -49 -133 l-33 -95 0 76 c-1 80 10 157 36 253 l16 59 12
-39 c6 -21 17 -49 23 -61z m4816 -70 c-243 -354 -529 -703 -696 -849 -151
-131 -403 -380 -536 -529 -154 -172 -193 -210 -347 -339 -244 -204 -706 -540
-693 -504 15 38 188 310 280 439 186 261 323 423 494 580 167 154 454 443 589
593 159 176 517 448 870 663 66 40 121 73 123 73 2 0 -36 -57 -84 -127z
m-3342 15 c-151 -181 -365 -467 -467 -625 -38 -59 -45 -65 -136 -107 -104 -48
-337 -131 -346 -123 -14 15 267 487 290 487 43 0 494 279 652 404 39 30 73 55
77 55 5 1 -27 -41 -70 -91z m1528 15 c-56 -65 -319 -328 -365 -365 -27 -23 47
56 165 175 199 201 259 258 200 190z m2890 13 c0 -23 -144 -340 -165 -364 -1
-1 -43 -14 -94 -27 -50 -14 -126 -38 -168 -55 -42 -16 -78 -28 -80 -26 -2 2
25 50 60 107 35 57 94 159 132 227 37 68 73 126 79 128 19 7 135 21 189 23 34
1 47 -3 47 -13z m147 -31 c29 -13 53 -30 53 -38 0 -14 -45 -149 -79 -237 l-22
-55 -118 0 -118 0 32 60 c18 33 57 115 86 183 54 123 54 123 83 118 16 -4 54
-17 83 -31z m-5931 -53 c15 -9 12 -20 -33 -123 -28 -63 -58 -135 -68 -161 -10
-26 -22 -45 -26 -42 -5 3 -19 24 -30 46 -26 51 -22 79 32 233 l41 115 33 -29
c19 -16 42 -34 51 -39z m5470 1 c-34 -69 -130 -236 -202 -351 -37 -60 -44 -66
-139 -114 -177 -90 -378 -217 -567 -360 -42 -32 -79 -58 -82 -58 -3 0 33 46
80 103 110 131 328 421 424 564 l75 112 105 46 c80 36 318 124 338 125 1 0
-13 -30 -32 -67z m-4943 -25 c-59 -86 -178 -281 -217 -354 -22 -40 -35 -53
-58 -58 -44 -9 -171 -7 -186 2 -9 6 7 45 61 153 41 79 87 166 103 193 l29 48
110 28 c61 15 130 37 155 48 25 11 47 18 48 17 2 -2 -18 -36 -45 -77z m5533
-34 c24 -40 24 -46 14 -102 -9 -51 -29 -131 -45 -179 -3 -9 -75 21 -122 52 -1
0 15 47 37 103 22 56 45 122 51 147 13 53 24 49 65 -21z m-5903 20 c37 -4 67
-8 67 -9 0 -2 -16 -32 -36 -67 -20 -34 -64 -120 -99 -189 l-61 -127 -34 14
c-18 8 -48 24 -66 35 l-33 20 16 42 c8 23 41 100 71 170 53 124 56 128 81 123
14 -3 56 -9 94 -12z m1421 -211 c-128 -154 -300 -385 -409 -548 -79 -119 -92
-132 -143 -159 -145 -74 -422 -185 -422 -168 1 20 222 410 263 462 7 9 57 40
112 69 173 92 466 288 635 424 30 24 56 43 58 42 2 -2 -41 -56 -94 -122z
m1500 -7 c-64 -68 -173 -177 -243 -242 -125 -117 -125 -117 -42 -28 78 83 392
393 399 394 2 0 -49 -56 -114 -124z m1865 22 c-195 -289 -535 -705 -680 -830
-139 -120 -446 -425 -566 -563 -120 -137 -191 -202 -423 -389 -232 -187 -550
-417 -550 -399 0 18 138 245 241 398 182 269 278 387 458 560 212 204 423 416
626 626 171 177 348 320 615 494 134 88 333 205 338 200 2 -2 -25 -45 -59 -97z
m1175 -51 c0 -56 -3 -120 -8 -142 l-8 -40 -15 30 c-9 17 -22 37 -30 46 -12 14
-10 28 12 104 14 48 25 97 25 108 0 16 3 18 12 9 8 -8 12 -48 12 -115z m-6272
-47 c20 -28 23 -40 16 -59 -5 -14 -19 -63 -31 -110 -19 -75 -22 -82 -28 -56
-14 65 -6 288 11 268 3 -4 18 -24 32 -43z m6016 25 c6 -6 -136 -295 -176 -361
-17 -26 -30 -32 -103 -48 -46 -10 -120 -31 -163 -47 -44 -16 -81 -29 -83 -29
-2 0 27 46 65 103 38 56 106 165 151 242 81 140 82 140 124 147 47 7 176 2
185 -7z m-285 -52 c-66 -116 -171 -285 -225 -365 l-60 -87 -126 -66 c-128 -67
-338 -200 -444 -282 -32 -24 -58 -42 -58 -39 0 3 50 65 111 138 118 141 292
370 401 529 75 107 92 118 273 177 162 53 162 53 128 -5z m404 6 c18 -12 33
-25 33 -30 0 -14 -58 -158 -102 -250 l-40 -87 -32 9 c-17 5 -57 9 -89 9 l-57
0 46 83 c25 45 70 133 100 194 54 113 54 113 81 102 15 -6 42 -19 60 -30z
m-5340 4 c-3 -5 -43 -71 -89 -149 -46 -77 -104 -179 -128 -226 -35 -67 -50
-88 -70 -92 -45 -10 -230 -19 -230 -11 0 13 90 217 132 296 l39 77 73 17 c41
10 118 35 172 55 116 45 106 42 101 33z m-651 -93 c26 0 24 -22 -9 -107 -19
-49 -42 -114 -51 -145 -9 -32 -18 -58 -21 -58 -2 0 -20 21 -40 46 -42 57 -43
73 -9 215 l25 108 47 -30 c25 -16 52 -29 58 -29z m1923 43 c-8 -10 -44 -54
-80 -98 -118 -142 -321 -418 -419 -569 l-95 -146 -190 -94 c-213 -106 -307
-144 -299 -121 14 36 140 267 201 369 l67 113 95 54 c196 112 552 359 691 478
40 35 48 38 29 14z m4167 -79 c14 -34 13 -41 -16 -134 -16 -55 -39 -120 -50
-145 l-20 -47 -42 36 c-23 20 -45 36 -50 36 -4 0 9 35 28 78 31 67 76 177 98
236 6 19 7 19 22 -2 8 -12 22 -38 30 -58z m-5880 -116 c-35 -73 -71 -154 -81
-180 -14 -38 -22 -48 -41 -48 -27 0 -131 37 -139 50 -6 10 48 183 81 258 l23
52 110 0 110 0 -63 -132z m4938 50 c-241 -346 -533 -699 -706 -851 -159 -141
-279 -260 -396 -392 -137 -153 -174 -189 -362 -347 -169 -141 -366 -294 -527
-406 l-103 -71 44 87 c93 183 267 447 434 655 39 48 128 141 199 206 122 113
427 419 598 601 109 116 401 335 630 472 81 49 228 128 238 128 5 0 -17 -37
-49 -82z m-1864 -21 c0 -1 -30 -32 -67 -67 l-68 -65 65 68 c60 62 70 72 70 64z
m2835 -117 c-7 -82 -43 -250 -53 -250 -4 0 -15 25 -24 55 l-18 54 34 88 c18
48 37 103 41 122 13 59 26 13 20 -69z m-4023 -72 c-148 -184 -297 -388 -413
-567 l-104 -159 -122 -67 c-122 -67 -375 -186 -381 -180 -6 5 109 227 189 365
l78 135 78 45 c182 104 599 399 728 513 22 20 41 36 43 37 1 0 -42 -55 -96
-122z m1530 25 c-64 -72 -269 -274 -337 -333 -22 -19 57 63 175 183 118 119
216 217 218 217 2 0 -23 -30 -56 -67z m-2862 -70 c-39 -65 -96 -169 -128 -231
-54 -107 -59 -113 -97 -123 -95 -26 -285 -49 -285 -34 0 10 77 200 113 276
l35 77 58 17 c81 22 269 93 324 120 25 13 47 22 48 20 2 -2 -28 -57 -68 -122z
m-855 -3 c-3 -14 -10 -58 -17 -97 -7 -40 -16 -73 -20 -73 -15 0 -30 79 -35
180 l-5 105 41 -45 c31 -35 40 -51 36 -70z m5953 65 c9 -8 -59 -138 -147 -280
l-67 -110 -105 -26 c-57 -15 -120 -34 -141 -43 -35 -15 -34 -13 70 138 59 84
132 194 162 245 l55 92 83 -4 c46 -3 86 -8 90 -12z m-219 -17 c-53 -100 -324
-488 -341 -488 -17 0 -182 -96 -296 -172 -174 -116 -349 -264 -542 -458 -262
-261 -457 -513 -587 -757 -43 -80 -59 -100 -116 -143 -65 -49 -326 -225 -399
-269 l-38 -23 6 34 c9 53 33 134 65 223 l30 82 167 125 c599 447 1248 1102
1653 1669 39 54 80 101 96 108 85 39 244 88 291 90 20 1 22 -1 11 -21z m310
-35 l42 -38 -26 -60 c-15 -33 -52 -106 -83 -163 l-56 -103 -35 7 c-20 4 -54
10 -77 13 l-41 6 81 137 c45 75 93 159 108 187 16 28 32 51 37 51 5 0 27 -17
50 -37z m-5906 -48 c21 -4 39 -10 41 -14 3 -4 -8 -50 -24 -102 -16 -51 -34
-113 -40 -136 -6 -24 -15 -43 -20 -43 -5 0 -31 22 -58 49 l-48 48 6 64 c4 35
13 90 19 121 l12 58 38 -19 c20 -11 54 -22 74 -26z m310 -37 c-9 -18 -42 -96
-74 -173 l-57 -140 -44 3 c-23 1 -67 9 -96 18 -49 14 -52 16 -46 42 11 45 52
184 67 227 l14 40 99 6 c54 3 111 6 127 7 l28 2 -18 -32z m4855 -64 c-406
-558 -1018 -1177 -1593 -1612 -77 -58 -146 -110 -154 -116 -30 -23 98 206 201
359 154 231 240 332 443 523 99 94 239 234 310 311 197 214 454 407 758 571
50 27 93 50 95 50 1 0 -26 -39 -60 -86z m824 2 c14 -65 7 -91 -65 -248 l-40
-88 -17 27 c-10 16 -29 38 -42 51 l-25 23 51 93 c28 51 64 120 80 154 17 34
33 59 38 54 5 -5 14 -34 20 -66z m-3670 -53 c-175 -217 -387 -517 -492 -694
-30 -51 -42 -61 -149 -121 -118 -67 -286 -153 -353 -181 -37 -16 -37 -16 -28
7 18 48 124 256 188 367 45 81 75 122 96 135 194 112 596 399 776 553 19 17
36 30 38 31 2 0 -32 -44 -76 -97z m1491 -15 c-194 -197 -374 -370 -299 -288
70 77 397 400 405 400 3 0 -45 -51 -106 -112z m-2806 8 c-36 -54 -170 -293
-212 -375 l-44 -88 -78 -22 c-160 -44 -273 -63 -273 -46 0 14 76 207 110 281
l38 82 68 22 c88 29 252 98 329 138 73 38 82 39 62 8z m-1062 -153 c16 -9 16
-18 5 -122 l-13 -112 -19 28 c-26 40 -55 137 -63 218 l-8 70 40 -36 c22 -20
48 -41 58 -46z m6039 -22 c-9 -41 -30 -113 -47 -160 l-32 -86 -5 55 c-6 51 -2
63 44 162 28 58 52 106 53 104 1 -1 -5 -35 -13 -75z m-3366 -38 c-149 -180
-377 -502 -509 -720 -34 -56 -44 -64 -175 -140 -142 -82 -364 -197 -369 -191
-6 6 113 259 180 381 l67 122 159 104 c221 143 668 480 694 522 4 5 9 8 12 5
3 -3 -24 -40 -59 -83z m3132 37 c19 -10 17 -15 -31 -93 -55 -87 -162 -245
-213 -313 -26 -35 -38 -42 -86 -51 -31 -6 -93 -27 -139 -46 l-82 -36 31 37
c62 75 289 379 336 451 l49 73 58 -6 c32 -3 67 -10 77 -16z m-226 -72 c-87
-125 -184 -254 -289 -383 -76 -95 -110 -128 -184 -178 -268 -184 -525 -441
-694 -694 -58 -88 -107 -133 -322 -298 -118 -91 -308 -225 -318 -225 -13 0 42
187 74 251 11 23 54 65 111 110 255 200 479 402 743 670 221 225 348 367 532
595 89 111 131 155 155 164 94 35 206 69 226 70 22 0 19 -6 -34 -82z m-5404
36 c28 -4 50 -8 50 -10 0 -1 -13 -55 -30 -119 -16 -64 -30 -125 -30 -135 0
-31 -18 -33 -63 -7 -78 46 -81 52 -74 177 3 60 8 114 12 119 3 6 21 5 46 -4
22 -8 62 -17 89 -21z m366 -36 c-18 -40 -52 -124 -76 -185 l-43 -113 -51 0
c-53 0 -177 18 -185 26 -7 7 24 157 49 238 l21 66 67 1 c37 0 103 9 147 18 44
10 85 19 92 20 7 0 -2 -29 -21 -71z m3454 -143 c-107 -107 -196 -195 -198
-195 -2 0 10 17 26 38 40 50 347 352 358 352 5 0 -79 -88 -186 -195z m1912
122 l19 -38 -72 -122 c-118 -200 -154 -250 -168 -233 -12 15 -49 31 -93 40
l-27 6 74 106 c41 58 104 153 141 210 65 101 68 104 87 87 10 -10 28 -35 39
-56z m-4610 -14 c-33 -48 -174 -305 -212 -388 l-37 -80 -114 -37 c-122 -39
-235 -65 -244 -57 -7 8 34 125 89 256 l47 110 107 42 c59 23 168 73 242 111
74 38 136 69 138 69 2 1 -5 -11 -16 -26z m3890 -135 c-326 -404 -775 -854
-1162 -1163 -63 -50 -121 -95 -128 -99 -30 -18 135 248 241 389 298 393 714
767 1081 971 33 18 62 31 64 29 2 -2 -41 -59 -96 -127z m744 -5 c-6 -68 -14
-91 -61 -180 -30 -56 -72 -130 -94 -165 l-41 -63 0 48 c0 27 -5 57 -11 68 -9
17 0 37 59 127 38 59 87 137 108 175 21 37 40 67 43 67 2 0 1 -35 -3 -77z
m-3039 -75 c-155 -196 -326 -447 -436 -639 l-54 -95 -111 -66 c-124 -74 -353
-198 -366 -198 -14 0 64 179 147 341 l75 147 144 96 c170 115 417 298 564 419
58 48 106 87 108 87 1 0 -31 -42 -71 -92z m-2842 22 c4 -6 29 -22 57 -36 47
-24 50 -27 44 -56 -3 -17 -6 -62 -6 -100 0 -63 -2 -69 -16 -58 -37 32 -104
189 -104 247 0 16 16 17 25 3z m719 -76 c-15 -32 -46 -113 -69 -179 -49 -139
-41 -133 -185 -134 -139 -1 -139 -1 -128 67 11 71 47 215 56 224 4 3 48 13 97
22 50 8 126 26 170 39 44 13 81 22 83 22 1 -1 -10 -28 -24 -61z m766 -26 c-44
-75 -95 -174 -162 -312 -31 -65 -61 -123 -66 -128 -21 -21 -367 -136 -378
-125 -4 4 71 219 105 298 l32 76 117 52 c64 28 176 82 247 120 72 39 131 70
133 70 1 1 -11 -23 -28 -51z m-1217 15 c94 -6 98 -7 93 -27 -12 -39 -44 -181
-51 -218 -7 -43 -18 -46 -80 -20 -111 47 -121 66 -109 204 6 75 8 79 28 73 11
-3 65 -9 119 -12z m3937 -57 c0 -2 -8 -10 -17 -17 -16 -13 -17 -12 -4 4 13 16
21 21 21 13z m1154 -158 c-298 -372 -661 -734 -1044 -1041 -58 -47 -107 -83
-109 -81 -9 8 52 174 87 236 30 53 65 91 177 191 157 140 465 450 599 602 75
85 99 106 165 139 73 38 212 88 220 80 2 -2 -41 -59 -95 -126z m244 112 c17
-11 32 -23 32 -26 0 -9 -187 -256 -265 -349 -204 -245 -463 -508 -700 -711
-148 -127 -404 -324 -422 -324 -17 0 -41 49 -48 96 l-6 39 89 68 c249 187 608
523 857 801 129 144 309 362 339 409 15 24 82 22 124 -3z m-2466 -37 c-121
-145 -339 -471 -433 -649 -29 -54 -60 -104 -69 -111 -58 -45 -457 -269 -465
-261 -10 10 101 282 171 420 27 51 40 64 159 143 158 106 436 314 565 423 52
44 99 81 103 81 5 1 -9 -20 -31 -46z m2632 -74 c-43 -86 -123 -229 -129 -229
-1 0 7 26 17 58 18 51 148 275 156 267 2 -1 -18 -45 -44 -96z m-107 -41 c-5
-52 -12 -68 -75 -156 -282 -394 -724 -831 -1111 -1095 -48 -34 -59 -37 -122
-37 -37 0 -70 4 -73 8 -2 4 41 41 97 82 197 144 404 326 638 559 240 241 380
401 543 618 82 110 92 120 99 100 5 -12 7 -48 4 -79z m-4721 -71 c-24 -59 -54
-143 -66 -186 l-23 -78 -81 -12 c-45 -6 -108 -11 -140 -11 l-59 0 7 68 c6 62
38 218 47 227 3 2 45 13 94 23 50 11 128 33 175 49 47 16 86 28 87 28 1 0 -18
-49 -41 -108z m744 -69 c-48 -95 -102 -208 -120 -250 l-31 -77 -77 -32 c-79
-33 -295 -109 -299 -105 -6 6 39 160 78 266 l41 115 117 55 c64 30 175 87 246
127 72 39 131 72 131 72 1 1 -38 -77 -86 -171z m-1518 133 c18 -11 56 -27 83
-36 l50 -16 0 -108 0 -109 -28 24 c-62 52 -103 118 -130 212 -9 28 -14 52 -12
52 2 0 19 -9 37 -19z m4847 -73 c-96 -108 -473 -485 -568 -568 l-75 -65 32 47
c100 146 295 359 447 488 75 63 226 179 234 180 2 0 -30 -37 -70 -82z m-4419
8 c0 -1 -9 -42 -19 -91 -11 -50 -22 -114 -26 -142 -4 -29 -10 -53 -14 -53 -24
0 -168 43 -188 55 -22 15 -23 22 -23 125 l0 109 135 0 c74 0 135 -1 135 -3z
m2776 -104 c-133 -176 -318 -473 -376 -604 -16 -37 -34 -52 -119 -105 -145
-91 -371 -216 -377 -210 -9 9 71 236 120 342 l47 100 122 82 c155 103 368 263
522 391 66 55 123 101 128 101 4 1 -26 -43 -67 -97z m2214 -68 c-73 -146 -200
-305 -430 -535 -220 -221 -392 -360 -534 -431 -43 -21 -80 -38 -82 -35 -2 2
49 44 114 95 332 257 701 632 916 928 28 39 53 70 55 68 2 -2 -16 -42 -39 -90z
m-3601 -116 c-40 -79 -89 -186 -109 -238 l-38 -95 -63 -32 c-80 -40 -309 -126
-317 -118 -9 9 16 119 56 242 l36 113 145 73 c80 41 191 101 246 135 55 33
103 61 108 61 4 1 -25 -63 -64 -141z m-739 120 c0 -2 -16 -48 -36 -103 -20
-55 -46 -138 -58 -185 l-23 -85 -79 -16 c-43 -9 -112 -19 -153 -23 l-73 -7 7
70 c4 39 14 108 24 153 l16 81 85 23 c47 12 128 38 180 57 92 34 110 40 110
35z m2451 -110 c-90 -120 -213 -317 -276 -442 l-50 -99 -105 -70 c-129 -87
-382 -238 -388 -232 -8 8 29 136 71 243 31 79 48 109 71 126 17 12 92 65 166
118 157 111 310 229 464 357 59 50 110 91 112 91 3 0 -27 -42 -65 -92z m-3261
-9 c36 -10 74 -18 86 -18 20 -1 21 -8 27 -98 3 -54 9 -106 13 -117 7 -17 6
-17 -26 -1 -77 40 -151 130 -185 224 -14 40 -14 43 3 35 9 -4 46 -15 82 -25z
m406 -16 c-12 -40 -36 -199 -36 -241 l0 -45 -54 7 c-30 3 -77 11 -105 18 -46
10 -52 15 -61 47 -6 20 -13 75 -17 124 l-6 87 89 1 c49 0 109 4 134 8 25 5 49
9 53 10 5 0 6 -7 3 -16z m1449 -163 c-40 -80 -114 -257 -140 -339 -17 -52 -19
-54 -89 -86 -72 -32 -233 -97 -273 -109 -20 -6 -21 -4 -16 36 6 49 56 249 71
289 8 20 43 44 144 97 73 39 178 98 233 130 55 33 101 59 103 57 2 -2 -13 -35
-33 -75z m-801 -58 c-18 -55 -40 -134 -49 -178 -9 -43 -18 -80 -20 -82 -9 -10
-165 -42 -229 -49 l-69 -6 6 104 c11 184 4 171 111 203 50 15 132 45 181 66
50 21 92 38 95 39 3 1 -9 -43 -26 -97z m-369 -59 c-4 -10 -9 -74 -12 -142 l-6
-124 -86 7 c-47 4 -102 11 -123 16 -33 10 -37 14 -47 60 -6 28 -14 74 -17 104
l-6 53 83 7 c46 4 111 13 144 20 80 18 78 18 70 -1z m-357 -23 l42 0 0 -42 c0
-24 6 -69 14 -100 7 -32 10 -58 6 -58 -5 0 -37 19 -72 43 -44 29 -76 61 -105
105 -24 35 -43 67 -43 72 0 4 26 1 58 -6 31 -8 76 -14 100 -14z m1839 -57
c-30 -60 -101 -249 -123 -327 l-16 -58 -77 -35 c-76 -36 -266 -113 -276 -113
-15 0 8 189 34 285 10 38 16 43 113 92 57 28 159 85 228 127 69 41 128 75 133
76 4 0 -3 -21 -16 -47z m-803 -77 c-13 -42 -32 -121 -41 -174 -9 -53 -17 -98
-19 -100 -4 -7 -149 -44 -218 -56 -89 -15 -86 -20 -85 124 1 142 -3 136 119
179 58 21 141 53 185 72 44 20 81 35 82 34 1 0 -9 -36 -23 -79z m2440 -90
c-18 -41 -41 -105 -50 -143 -13 -53 -23 -74 -44 -89 -89 -63 -393 -264 -400
-264 -14 0 -30 61 -29 109 l0 46 130 89 c71 50 196 142 277 207 81 64 148 118
149 118 1 1 -14 -32 -33 -73z m-1306 -18 c-29 -72 -67 -193 -79 -249 -10 -46
-12 -49 -87 -87 -80 -42 -284 -132 -297 -132 -8 0 1 185 11 230 4 20 24 35 87
67 45 23 150 83 232 132 83 50 151 91 152 91 2 0 -7 -24 -19 -52z m-1519 -103
l0 -135 -109 0 c-103 0 -110 1 -125 23 -12 20 -55 164 -55 187 0 4 35 13 78
19 42 7 102 18 132 25 30 8 60 14 67 15 8 1 11 -37 12 -134z m-406 88 c90 -6
97 -7 98 -27 0 -22 31 -139 43 -168 8 -17 5 -17 -32 -4 -95 34 -187 107 -224
180 -19 37 -19 38 -1 32 10 -4 62 -10 116 -13z m2322 -60 c-30 -78 -65 -211
-65 -245 0 -19 -21 -34 -133 -95 -72 -40 -162 -85 -199 -102 -78 -35 -78 -35
-78 74 0 129 -6 121 153 213 78 46 187 114 242 151 55 38 101 69 102 70 2 0
-9 -29 -22 -66z m-1220 -28 c-8 -33 -18 -104 -21 -157 l-7 -98 -66 -20 c-36
-11 -101 -27 -144 -37 -67 -14 -80 -15 -87 -3 -12 19 -22 124 -18 184 l3 50
110 42 c61 22 139 55 175 71 36 17 66 29 67 29 1 -1 -4 -29 -12 -61z m1625
-25 c-15 -47 -31 -107 -35 -134 -7 -46 -11 -50 -74 -91 -114 -74 -322 -187
-329 -180 -4 4 -7 45 -7 92 l0 85 125 80 c69 44 175 115 235 158 61 42 111 77
112 76 1 -1 -11 -40 -27 -86z m-1994 -85 c-6 -25 8 -177 19 -206 5 -14 -6 -17
-74 -23 -114 -9 -152 -1 -177 37 -11 18 -30 57 -42 88 l-21 57 92 17 c51 9
117 25 147 35 30 10 57 18 59 19 2 1 0 -10 -3 -24z m705 -144 l-6 -124 -55
-19 c-125 -43 -234 -68 -242 -55 -9 15 -38 139 -38 164 0 13 20 25 78 46 42
15 120 47 172 71 52 23 96 42 96 42 1 -1 -1 -57 -5 -125z m1734 89 c4 -22 15
-51 26 -64 l20 -25 -73 -49 c-40 -27 -121 -77 -180 -111 -82 -48 -112 -61
-130 -56 -27 8 -88 53 -88 64 0 4 51 39 113 78 61 39 153 101 202 137 50 36
93 65 97 66 3 0 9 -18 13 -40z m-2740 -45 c9 -27 25 -65 36 -83 10 -18 19 -35
19 -37 0 -2 -24 3 -52 12 -94 27 -160 68 -212 130 l-24 28 109 0 108 0 16 -50z
m1394 -120 c0 -58 3 -109 5 -114 13 -20 -291 -126 -311 -110 -16 14 -53 113
-53 142 0 19 15 29 93 61 50 21 130 58 177 82 47 24 86 43 87 43 1 1 2 -46 2
-104z m862 22 c5 -28 10 -61 11 -71 2 -16 -25 -35 -147 -98 -82 -43 -159 -77
-170 -75 -10 1 -34 22 -52 46 l-34 43 118 66 c65 36 149 85 187 108 39 24 72
41 75 39 2 -3 8 -29 12 -58z m809 28 c-60 -38 -271 -145 -286 -145 -5 0 21 17
57 38 36 22 86 53 111 70 40 27 132 67 163 70 6 1 -15 -14 -45 -33z m-155 -15
c27 0 23 -4 -40 -43 -39 -24 -110 -65 -158 -91 -79 -43 -95 -48 -170 -53 l-82
-5 125 75 c69 42 147 91 174 110 47 32 52 33 85 21 20 -7 49 -13 66 -14z
m-2236 -142 c6 -18 7 -29 0 -33 -5 -4 -59 -9 -119 -12 -127 -7 -134 -3 -176
80 -18 35 -21 48 -12 51 7 3 48 12 91 21 43 9 102 25 130 34 l52 18 11 -66 c7
-36 17 -78 23 -93z m1145 100 c3 -35 9 -75 12 -89 5 -25 0 -28 -123 -81 -70
-30 -147 -63 -170 -72 l-43 -16 -30 53 c-17 28 -29 57 -28 64 2 7 66 43 143
82 77 38 158 81 180 94 22 14 43 26 46 26 3 1 9 -27 13 -61z m-1475 -50 c6
-17 23 -46 37 -65 28 -37 26 -38 -48 -22 -68 15 -134 43 -178 77 l-35 27 85 6
c47 3 95 6 107 7 15 2 24 -6 32 -30z m676 -68 c7 -25 20 -60 29 -78 10 -19 16
-35 14 -37 -6 -7 -172 -35 -204 -35 -26 0 -43 10 -84 50 -27 28 -50 55 -50 60
0 5 19 14 43 20 23 6 80 24 127 39 47 15 91 28 99 27 9 -1 20 -20 26 -46z
m1291 19 c10 -12 32 -30 48 -40 l29 -17 -59 -30 c-103 -52 -186 -82 -227 -82
-41 0 -117 19 -117 29 0 5 287 158 301 160 3 1 14 -9 25 -20z m-456 -49 c0 -5
16 -27 35 -49 l35 -39 -97 -34 c-54 -20 -122 -41 -151 -49 -52 -13 -55 -12
-108 15 l-54 28 128 52 c70 29 141 60 157 69 34 19 55 21 55 7z m-440 -13 c0
-7 13 -34 29 -59 l30 -47 -108 -25 c-59 -14 -121 -26 -137 -26 -33 0 -121 58
-107 70 4 4 51 22 103 39 52 18 109 38 125 46 39 17 65 18 65 2z m-710 -6 c0
-4 18 -29 41 -55 l41 -46 -54 0 c-29 0 -76 6 -105 14 -51 14 -141 54 -149 67
-2 4 33 11 79 17 112 13 147 14 147 3z m1837 -8 c-17 -17 -277 -93 -317 -93
-8 0 26 19 77 43 50 23 95 46 99 50 4 4 38 6 75 5 37 -2 67 -4 66 -5z m-524
-103 l48 -17 -58 -16 c-85 -24 -179 -37 -258 -36 l-70 0 123 44 c68 23 126 46
130 49 3 4 13 4 21 0 9 -4 38 -15 64 -24z m-888 -16 l40 -36 -105 5 c-58 2
-123 10 -145 17 l-40 13 85 17 c117 24 120 24 165 -16z m403 -56 c-56 -8 -194
-8 -233 2 l-30 7 30 7 c17 4 66 17 110 29 l80 22 43 -30 44 -30 -44 -7z"/>
</g>
</svg>
